<?xml version="1.0" standalone="no"?>
<!DOCTYPE svg PUBLIC "-//W3C//DTD SVG 20010904//EN"
 "http://www.w3.org/TR/2001/REC-SVG-20010904/DTD/svg10.dtd">
<svg version="1.0" xmlns="http://www.w3.org/2000/svg"
 width="640.000000pt" height="640.000000pt" viewBox="0 0 640.000000 640.000000"
 preserveAspectRatio="xMidYMid meet">
<metadata>
Created by potrace 1.11, written by Peter Selinger 2001-2013
</metadata>
<g transform="translate(0.000000,640.000000) scale(0.100000,-0.100000)"
fill="#000000" stroke="none">
<path d="M3560 4342 c0 -5 -15 -12 -32 -16 -41 -8 -138 -106 -237 -239 -39
-53 -73 -97 -75 -97 -2 0 -72 33 -157 74 -136 65 -426 184 -501 207 -19 5 -37
3 -55 -6 -30 -15 -284 -250 -326 -300 -101 -123 -93 -264 22 -367 56 -50 275
-200 406 -278 50 -29 92 -54 94 -56 6 -5 -171 -232 -307 -394 -146 -176 -222
-250 -407 -401 -219 -178 -281 -257 -369 -471 -43 -104 -46 -155 -13 -231 46
-103 190 -197 301 -197 97 1 124 18 301 206 248 261 339 367 829 964 93 113
172 209 176 213 4 5 59 -29 121 -76 229 -170 360 -247 545 -321 142 -56 327
-67 372 -22 9 9 19 42 23 73 4 32 13 103 22 158 39 256 41 279 23 313 -9 17
-37 48 -63 69 -97 79 -134 117 -165 171 -39 68 -136 172 -217 232 -33 25 -60
47 -60 50 0 3 33 42 74 88 88 100 109 151 108 263 0 67 -5 85 -34 140 -77 144
-214 248 -340 257 -35 3 -59 0 -59 -6z m-80 -518 c0 -3 -13 4 -30 16 -16 12
-30 24 -30 26 0 3 14 -4 30 -16 17 -12 30 -24 30 -26z m31 -21 c13 -16 12 -17
-3 -4 -17 13 -22 21 -14 21 2 0 10 -8 17 -17z"/>
</g>
</svg>
